Patient4_TMGait_0pt2_02_left_12_EMG.mot
version=1
nRows=36
nColumns=33
inDegrees=no
endheader
time	1LAddLong	2LGlutMax	3LGlutMed	4LIliopsoas	5LSemiMemb	6LBicFemLong	7LRecFem	8LVastMed	9LVastLat	10LGasMed	11LTibAnt	12lTibPost	13LPeroneusLong	14LSol	15LExtDigLong	16LFlexDigLong	17RAddLong	18RGlutMax	19RGlutMed	20RIliopsoas	21RSemiMemb	22RBicFemLong	23RRecFem	24RVastMed	25RVastLat	26RGasMed	27RTibAnt	28RTibPost	29RPeroneusLong	30RSol	31RExtDigLong	32RFlexDigLong
29.155	-0.010071	0.019379	-0.007935	-0.014954	0.023956	-0.10529	0.018158	-0.006561	-0.053101	-0.008392	-0.069122	-0.007935	-0.066376	0.12589	-0.40588	-0.029449	0.023804	0.053253	-0.43762	0.14969	0.29159	-0.13443	-0.07019	-0.069122	0.096741	-0.019836	-0.11581	-0.007629	-0.55206	0.13611	-0.005493	-0.012207
29.156	-0.00061	0.029602	0.016174	-0.010986	0.022736	0.030823	-0.031433	0	-0.003204	0.016022	-0.023499	-0.000153	-0.14969	0.13001	-0.42313	-0.036926	0.040131	0.031586	-0.003357	0.13641	0.30258	-0.16281	-0.072784	-0.078888	0.050659	0.099182	-0.25604	0.092316	1.1354	0.031433	-0.006256	-0.003357
29.157	0.009918	0.022583	0.006409	0.000305	0.005646	0.066071	-0.008698	0.00061	-0.026093	0.02182	0.029907	0.001068	-0.36041	0.077057	-0.00885	-0.014954	0.052338	0.006104	0.30426	0.08728	0.28381	-0.16846	-0.051117	-0.077057	0.000763	0.097351	-0.1329	0.021057	1.4461	0.068817	-0.003815	-0.01297
29.158	0.01358	-0.01297	-0.010223	0.014038	0.008392	0.044556	0.007019	0.00885	-0.05127	0.05188	0.085754	0	-0.23941	-0.039673	0.31769	-0.014801	0.055847	-0.049591	-0.3447	0.066223	0.30838	-0.14252	0.11215	-0.078888	-0.072784	0.07843	0.05722	-0.008392	0.18585	0.15106	-0.003052	-0.011902
29.159	0.026093	-0.02121	-0.025024	0.016785	0.015259	-0.20813	-0.015869	0.00473	-0.038452	-0.001984	0.14175	-0.001984	0.13657	0.090027	-0.10239	-0.016022	0.020905	-0.068665	-0.81406	0.011139	0.22385	-0.086365	0.058441	-0.11047	-0.065765	0.06485	0.11765	-0.00061	-0.80566	0.15335	-0.007324	-0.008545
29.16	0.036469	0.004425	-0.027161	-0.001526	-0.001831	-0.11612	-0.037079	0.001678	-0.022583	-0.005798	0.04715	-0.00061	0.27496	0.025635	-0.088043	-0.012665	-0.029144	0.00351	0.94711	-0.048981	0.21072	-0.065002	0.061646	-0.085144	-0.13077	0.028229	0.009918	-0.003967	-0.059662	0.12528	0.000763	-0.00824
29.161	0.031738	0.005646	-0.046082	-0.015717	-0.016632	-0.043793	0.02533	0.007172	-0.011597	0.014038	-0.10635	0.000153	-0.034637	-0.054169	-0.15411	-0.012665	-0.024719	-0.013275	1.8266	-0.22156	0.24094	-0.11505	0.15259	-0.060272	-0.12573	0.003204	-0.17319	-0.000305	0.58563	0.12482	-0.00412	-0.000458
29.162	0.022888	-0.002899	-0.010376	-0.009308	-0.00351	-0.063629	0.050049	0.006104	-0.015106	-0.010529	-0.085602	-0.00473	-0.077972	-0.007019	-0.19699	-0.014954	-0.039063	-0.009003	1.5199	-0.28809	0.20081	-0.060425	0.23193	-0.034637	-0.058136	0.003967	-0.20935	0.003357	0.11765	0.092163	-0.004272	-0.00061
29.163	0.021057	-0.032806	-0.019531	0.007019	0.02594	-0.096436	0.063019	-0.009613	-0.033875	-0.039978	-0.052795	0.009766	0.13687	0.011902	-0.036774	-0.006714	-0.04364	-0.056152	0.14481	-0.12405	0.13779	0.019836	0.14557	0.035248	0.053101	0.004425	0.010834	-0.000153	-0.52002	0.15045	-0.001984	-0.006256
29.164	0.002594	0.027466	0.07843	0.028229	0.042267	0.001526	0.1387	-0.007324	-0.092926	-0.003204	-0.0737	0.00351	-0.046844	-0.009003	0.05127	-0.011902	-0.020905	-0.099792	-0.27817	-0.06897	0.15579	0.060425	-0.056763	0.000458	0.090942	0.02655	0.046539	0.002594	-0.29953	0.1149	-0.001526	-0.004578
29.165	-0.012512	-0.020752	0.03006	0.003204	0.036621	0.1001	0.23148	0.009613	-0.13184	0.027924	-0.067596	-0.00473	0.097504	-0.060425	0.028229	-0.023651	-0.000153	-0.07843	-0.005646	0.0383	0.14404	0.090637	-0.13687	-0.027313	0.061493	0.034027	0.001678	0.003967	-0.003967	0.061951	-0.00351	-0.00885
29.166	-0.018311	-0.020599	0.02655	0.003967	0.016937	0.13962	0.18799	0.018311	-0.19577	0.011292	-0.095062	0.002289	0.69763	-0.005951	0.13901	-0.00885	0.004425	0.002899	-0.14557	0.23544	0.17059	0.13214	-0.09613	0.18936	0.079346	0.02655	-0.033875	-0.000916	0.098114	0.039673	-0.002136	-0.012054
29.167	-0.023041	-0.013275	0.055237	-0.021362	-0.007019	0.12894	0.084839	0.042267	-0.21759	0.056763	-0.13199	0.001373	-0.008392	-0.007629	0.15274	-0.024567	0.010529	-0.019531	-0.018616	0.22964	0.20783	0.14923	-0.18601	0.23743	0.088806	0.018005	-0.087585	-0.000916	-0.013428	0.061493	-0.000305	-0.012665
29.168	-0.029602	0.013123	0.035553	-0.003357	-0.002441	0.068512	-0.017395	0.026703	-0.168	0.045776	-0.025177	-0.006104	-0.085907	0.046539	0.18799	-0.015869	0.023041	-0.010223	0.074463	0.15121	0.20233	0.12543	-0.21744	0.083313	0.059967	0.020294	-0.068054	-0.002136	-0.10544	-0.004883	-0.005188	-0.008392
29.169	-0.016174	0	-0.019989	0.007172	0.002747	0.059204	-0.0737	0.020447	-0.035553	0.028839	0.052795	-0.000305	-0.17395	0.041962	0.092163	-0.000916	0.023193	-0.010376	0.079193	0.094604	0.21103	0.099182	-0.11993	0.054474	0.012665	0.016632	-0.00946	-0.003204	0.077057	0.052185	-0.001831	-0.013123
29.17	-0.0177	0.013123	-0.050049	0.009918	-0.003357	0.04303	-0.19913	0.004883	0.10223	-0.006104	0.11261	0.002289	-0.22492	0.054779	0.41336	-0.006866	0.018463	0.039215	0.22446	0.062256	0.42938	0.13977	-0.078888	0.003967	0.035858	0.01236	-0.025635	0.003815	0.1294	0.043945	-0.00412	-0.017853
29.171	-0.016022	0.016785	-0.015564	-0.004272	0.011597	0.011444	-0.32181	-0.006866	0.21698	0.039825	0.19714	-0.00351	-0.17456	0.021515	0.40985	-0.016327	-0.005188	0.038452	0.21988	0.055389	0.40985	0.15091	-0.065765	-0.044556	0.068054	0.012207	-0.038452	0.002594	0.15289	0.02182	-0.007172	-0.005646
29.172	-0.007477	0.030212	-0.001221	-0.009155	0.007172	0.10193	-0.20096	-0.015411	0.31326	0.021057	-0.024872	0.001526	-0.11078	0.081635	0.39063	-0.000305	-0.006866	0.001526	-0.057068	0.019073	0.36026	0.12665	-0.007019	-0.069885	0.05249	-0.015106	-0.061035	-0.001984	0.024414	0.071716	-0.00412	-0.01297
29.173	0.029907	0.037842	0.038147	-0.004883	0.010529	0.15823	-0.047302	-0.020142	0.30777	0.011597	0.067596	-0.002136	0.099487	0.16892	-0.22156	-0.000763	0.001984	0.050354	-0.32669	-0.055695	0.32806	0.092926	0.003357	-0.008392	0.034027	-0.018768	-0.075836	-0.018463	-0.070343	0.049591	-0.004883	-0.014496
29.174	0.022125	0.005035	0.011139	-0.00412	0.009918	0.22385	0.044556	-0.014038	0.25604	-0.027161	0.056305	0.006714	0.20783	0.29938	-0.088959	-0.010529	-0.02533	0.072479	-0.10849	-0.081787	0.23102	0.079193	0.023499	0.042114	0.01236	-0.020447	-0.000153	-0.013123	-0.079498	0.005341	-0.010071	-0.009918
29.175	0.018921	-0.006256	0.016022	0.016632	-0.008392	0.024719	0.005798	0.00351	0.14587	-0.046082	0.14557	-0.003357	0.15503	0.1973	-0.52673	-0.00824	-0.016022	0.052643	0.079803	0.03067	0.23178	0.070801	0.036469	-0.000763	-0.001984	-0.024719	0.008087	-0.022583	-0.10071	-0.006104	-0.007019	0.00412
29.176	0.01236	-0.001068	0.014191	0.004883	-0.002747	-0.094604	0.007935	0.008087	0.10574	0.005341	0.39185	0.003052	-0.14572	0.01297	-0.075684	-0.02533	0.00412	0.010834	0.59692	0.019379	0.21179	0.098267	0.025787	-0.021057	-0.027466	-0.00473	-0.016479	-0.031891	-0.11261	-0.025177	-0.004578	-0.001984
29.177	0.010376	0.001831	-0.011444	0.010376	0.006409	-0.18875	0.048676	-0.004272	0.1442	0.040741	0.38528	0.012054	-0.10696	0.13687	-0.09201	-0.018768	-0.019379	-0.032349	0.34561	0.03952	0.14801	0.079651	0.025635	0.045319	-0.036163	0.018158	-0.019073	-0.019836	-0.093994	-0.024719	-0.00412	-0.005493
29.178	0.005035	0.00946	-0.041046	0.001068	-0.003052	-0.09903	0.06958	-0.00351	0.17517	0.070038	-0.020142	0.002136	-0.16556	0.078735	0.44113	-0.017242	-0.023804	-0.10605	0.20279	0.007172	0.20599	0.088654	-0.20981	0.062103	-0.070801	0.005493	0.002594	0.007935	-0.015106	-0.024567	-0.003967	0.001526
29.179	-0.005035	-0.02655	-0.054779	0.006561	0.005798	0.10315	0.069275	0.007477	0.17807	-0.010071	-0.68283	-0.000153	0.084534	-0.11169	0.068054	-0.038605	-0.00946	-0.15671	0.07782	-0.14832	0.14984	0.11505	-0.18158	0.10254	-0.081482	-0.010376	-0.007629	0.011444	0.21927	-0.016937	-0.000763	0.001831
29.18	-0.005798	-0.032654	-0.015717	0.006866	-0.020142	0.2356	0.064697	-0.000916	0.029144	-0.031128	-0.49271	-0.000763	0.17212	-0.077515	-0.14984	-0.009155	0.017242	-0.12177	0.61203	-0.30151	0.14908	0.11093	-0.11368	0.099792	-0.065918	-0.025635	0.021667	-0.005798	0.16571	-0.020142	-0.000763	-0.003204
29.181	-0.010376	-0.016022	0.018616	0.017548	-0.032501	0.33417	0.061035	-0.013123	-0.3093	-0.016174	-0.12802	-0.001678	0.043945	-0.1088	-0.49072	-0.036621	0.021667	-0.1268	0.73547	-0.19196	0.32181	0.099487	-0.07309	0.053406	-0.05661	-0.033569	0.016937	-0.001678	0.040131	-0.009613	-0.001373	-0.01236
29.182	-0.002899	0.002594	0.021667	-0.011597	-0.050507	0.2562	0.048218	-0.00412	-0.42679	0.028076	-0.16861	0.005646	-0.081329	-0.15717	-0.62988	-0.023041	0.039978	-0.1265	0.29831	0.11749	0.40955	0.13596	-0.010376	0.078735	-0.02121	-0.026703	0.008545	-0.00351	-0.044556	-0.019073	-0.000916	-0.008392
29.183	-0.002136	0.001984	-0.041962	-0.010986	-0.048218	0.1619	0.031128	-0.001678	-0.19501	0.01297	-0.054932	-0.005798	-0.053558	-0.12528	-0.52002	-0.030212	0.042572	-0.10757	0.30914	0.10101	0.51453	0.121	0.064545	0.05661	0.063629	-0.01358	0.030365	-0.007935	-0.069427	-0.035095	-0.002136	-0.009308
29.184	0.003357	0.018463	-0.083618	0.023499	-0.043488	-0.056458	-0.019836	0.001221	0.070038	0.034027	0.13168	-0.004883	-0.177	-0.15015	0.1741	-0.036774	0.061951	-0.12482	0.17899	-0.014648	0.34744	0.1033	0.001678	-0.061646	0.045319	-0.021973	0.064392	-0.008087	-0.1886	-0.037079	-0.004272	-0.008392
29.185	0.007019	0.052338	-0.050049	0.014343	0.000305	-0.48828	-0.061798	0.00061	0.16388	0.040588	0.048065	0.009766	-0.23453	-0.15427	-0.12146	-0.033569	0.085449	-0.079651	0.19852	0.010376	0.10315	0.14832	-0.13733	-0.14221	0.006714	-0.023193	0.051727	-0.008392	-0.17395	-0.021515	-0.001831	-0.007629
29.186	0.001678	0.075378	0.062103	0.008087	0.024414	-0.60776	-0.02533	0.003967	0.16815	0.039063	0.046997	-0.002747	-0.11978	-0.13001	0.00946	-0.01709	0.1239	-0.08316	-0.19119	0.10407	0.063324	0.16052	-0.17059	-0.18845	-0.058899	-0.019836	0.021973	-0.007019	-0.024567	-0.041504	-0.002441	-0.001831
29.187	-0.00946	0.033875	0.036163	0.006866	0.040436	-0.34454	-0.020599	0.017853	0.070343	0.02655	0.11688	0.000458	-0.054626	0.004578	0.003815	-0.024109	0.13275	-0.086975	-0.23377	0.087433	0.10773	0.14862	-0.04303	-0.077667	0.010223	-0.021973	0.090485	-0.010376	0.083313	-0.032654	-0.004272	-0.003662
29.188	-0.017853	0.018158	0.042725	0.00351	0.011597	0.15335	0.037842	0.020752	-0.13473	0.021973	-0.044403	-0.001984	0.27618	-0.019836	0.050201	-0.014496	0.1265	-0.058289	0.1152	0.070953	0.17929	0.12543	0.031586	0.001678	0.067749	-0.02182	0.14816	-0.00885	0.016327	-0.066223	-0.010376	-0.003967
29.189	-0.013885	0.024719	0.076294	0.00061	-0.020599	0.31433	0.04425	0.011139	-0.4425	0.007629	-0.049591	-0.000153	0.27878	0.042725	0.25482	0.002136	0.049286	-0.017395	0.3833	0.037994	0.23529	0.21652	0.062103	-0.028076	-0.000458	-0.027008	0.16266	-0.012054	-0.15274	-0.092316	-0.004272	-0.001221
29.19	-0.002899	0.027466	0.022736	-0.00824	-0.041962	0.26642	0.040588	-0.001984	-0.4216	0.016785	-0.038147	0.002747	-0.09491	0.075378	0.25986	-0.00946	-0.054932	-0.076904	0.25024	0.050812	0.084839	0.26093	0.045624	0.014191	-0.041351	-0.014038	0.073242	-0.00885	-0.11673	-0.079956	-0.004425	0.003204
